<?xml version="1.0" encoding="UTF-8"?>
<svg id="Layer_1" xmlns="http://www.w3.org/2000/svg" version="1.1" viewBox="0 0 2145.6 2145.5">
  <!-- Generator: Adobe Illustrator 30.1.0, SVG Export Plug-In . SVG Version: 2.1.1 Build 136)  -->
  <defs>
    <style>
      .st0 {
        fill: #fff;
      }
    </style>
  </defs>
  <path d="M1302.2,2139.9c131.3-6.6,275.4-22.9,399-62.5,202.9-65,319.7-188.1,381-391.3,36-119.4,51.5-258.3,57.7-383.3,7.6-153.6,7.6-306.5,0-460.1-6.2-125.3-21.7-263.5-57.7-383.3-63.5-211.2-187.4-334.1-398.7-396.9-119.8-35.6-257-50.9-382.2-57-151.6-7.4-302.5-7.4-454.1-.1-124.2,5.9-263.4,21.3-382.5,56.4C249.7,125.2,125.1,249.4,61.8,464.7c-34.4,116.9-49.8,252.2-55.9,374.6-7.7,154.3-7.9,307.6-.3,461.7,6.1,125.1,21.6,264.2,57.5,383.8,65.8,219.6,195.5,341.8,415.6,403,122.4,34,265.3,48.3,392.8,53.5,143.7,5.8,286,5.9,430.7-1.4h0Z"/>
  <g>
    <path class="st0" d="M1468.3,1039.4c-88.1.2-171.2,8.8-256.6,24.5-135.7,24.9-291.1,85.7-395.1,180.1,41,75.5,72.2,133.9,53.5,221-16.3,56.8-67.1,93.2-125.5,86.9-42.8-4.6-75.3-34-83.7-76.4-19.2-97,37.6-197.2,104.4-264.4,105.5-106.2,250.8-157.8,396.3-183.9,83.6-12.6,163.9-20.8,248.1-21.1l226.8-.8-.5-247.1c0-29.9-2.3-57.6-7.5-86.1-16.7-50.5-57.4-46.8-103.2-55.7-1.3-6-1.2-17.2.2-23.6l343.8.2.5,22.9-59.7,10.8c-25.4,4.6-44,25.8-48.2,51.8-5.6,34.4-7,67.2-7,103.5v591.4c0,28.6,1.8,53.9,6.2,81.1,8.7,54.4,62.7,58,107.7,62.4,1,6.2,1,16.6.2,23.7h-341c-2.5-7-2.9-17.4-1.1-24.1,40.3-5.4,93.6-5.8,103.3-57.3,4.2-22.5,6.1-44.9,6.1-68.8l.3-351.4-168.3.4h0ZM768.4,1502.2c17.4-21.5,17.4-49.3,9.2-73.7-11.6-34.8-26.2-66.4-44.1-100-29.4,43-56.9,109.5-37.8,155.9,5.8,14.1,19,25.9,29.9,28.2,15.8,3.4,32.5,2.2,42.7-10.4h0Z"/>
    <path class="st0" d="M546.1,1540.5l-268.3.2c-2.1-5-2.5-15.9-1.5-23.1,19.1-3.8,36.8-6.2,54.4-11.9,51.8-16.5,58.4-74.7,60.2-122.5l9.2-245.8,15.7-395.7c1-26.2-1.3-51.2-8.7-74.8-13.8-44-62.1-43.3-101.4-50.6v-23.4c0,0,234.2,0,234.2,0l139.2,334.5,94.5,224.6c-32.2,26.4-58.5,55.4-86.1,91.5l-233.2-537.2-19.4,471.1-7.6,219.9c3.6,28.4,3.7,57.5,20.8,80.5,28.7,38.5,82.6,34.1,95.7,40.2,3.3,1.5,2.6,9.7,2.2,22.5h0Z"/>
    <g>
      <path class="st0" d="M1205.6,736.5l-.9,246.5-117.9,22.4-6.1-318.8-169.3,376.8c-16.3,9.1-29.1,16.1-48.6,23.6l217.3-493.7h235.1c2.4,5.9,2.4,17.7.6,23.3-42.3,7.4-91.5,8.5-102.6,56.7-4.5,19.5-7.4,40.1-7.5,63.3h0Z"/>
      <path class="st0" d="M1317.7,1540.6h-338c-3.5-6.3-4-21.3,1.4-23.4l51.8-9.2c57.5-10.2,53-84.9,53.1-130.7l.4-241.8c39.6-13.1,77.5-23.7,118.6-32.4v290.5c1.4,46,4,107.4,61.6,115.8l49.8,7.3c4,4.1,3.9,16.1,1.4,23.9h0Z"/>
    </g>
  </g>
</svg>