<?xml version="1.0" encoding="UTF-8"?>
<svg id="Layer_1" data-name="Layer 1" xmlns="http://www.w3.org/2000/svg" viewBox="0 0 2534.98 1526.3">
  <defs>
    <style>
      .cls-1 {
        fill: #fff;
      }
    </style>
  </defs>
  <path class="cls-1" d="M1896.41,710.15c-140.12.33-272.31,14-408.1,38.89-215.77,39.55-462.91,136.23-628.26,286.44,65.13,119.99,114.8,212.93,85.12,351.46-25.97,90.33-106.69,148.27-199.56,138.22-68.04-7.36-119.72-54.09-133.09-121.54-30.59-154.29,59.81-313.55,165.99-420.43,167.79-168.91,398.75-250.89,630.24-292.42,132.9-20.06,260.64-33.06,394.51-33.55l360.67-1.31-.86-392.97c-.1-47.53-3.67-91.6-11.89-136.85-26.49-80.36-91.31-74.47-164.11-88.58-2-9.6-1.96-27.4.3-37.52l546.76.29.85,36.42-94.9,17.1c-40.47,7.29-70.02,41-76.69,82.33-8.84,54.75-11.12,106.91-11.13,164.65l-.07,940.48c0,45.55,3.01,85.65,9.93,128.91,13.84,86.48,99.68,92.19,171.25,99.24,1.54,9.84,1.65,26.47.31,37.72l-542.28-.13c-4.03-11-4.55-27.6-1.78-38.17,64.02-8.55,148.86-9.17,164.19-91.04,6.7-35.82,9.68-71.45,9.71-109.45l.45-558.81-267.56.62ZM783.42,1445.97c27.72-34.24,27.6-78.43,14.63-117.19-18.51-55.29-41.73-105.64-70.09-159-46.7,68.31-90.43,174.18-60.04,247.92,9.24,22.42,30.29,41.14,47.53,44.85,25.16,5.42,51.67,3.55,67.97-16.58Z"/>
  <path class="cls-1" d="M429.95,1506.95l-426.72.37c-3.34-7.89-3.99-25.22-2.4-36.66,30.36-6.07,58.45-9.93,86.51-18.87,82.45-26.29,92.93-118.72,95.77-194.82l14.59-390.94,24.94-629.24c1.65-41.64-2.02-81.35-13.82-118.88C186.81,47.96,110,49.01,47.55,37.37l.12-37.21,372.28-.08,221.33,531.92,150.31,357.18c-51.28,41.94-92.98,88.12-136.94,145.44L283.86,180.38l-30.77,749.11-12.01,349.66c5.79,45.11,5.84,91.49,33.13,128.05,45.65,61.16,131.32,54.19,152.23,63.94,5.23,2.44,4.09,15.43,3.51,35.81Z"/>
  <g>
    <path class="cls-1" d="M1478.72,228.38l-1.5,392-187.53,35.56-9.75-506.93-269.3,599.2c-25.88,14.4-46.25,25.66-77.3,37.51L1278.88.6h373.92c3.87,9.41,3.76,28.19.99,36.99-67.3,11.7-145.44,13.51-163.16,90.19-7.16,30.97-11.76,63.72-11.9,100.6Z"/>
    <path class="cls-1" d="M1656.99,1507.04l-537.56.06c-5.63-10.05-6.3-34,2.16-37.27l82.37-14.6c91.46-16.21,84.36-135.03,84.47-207.77l.58-384.47c62.96-20.84,123.26-37.75,188.67-51.5l-.03,461.89c2.22,73.17,6.45,170.71,97.93,184.13l79.12,11.61c6.31,6.49,6.13,25.53,2.3,37.94Z"/>
  </g>
</svg>